<?xml version="1.0" standalone="no"?>
<!DOCTYPE svg PUBLIC "-//W3C//DTD SVG 20010904//EN"
 "http://www.w3.org/TR/2001/REC-SVG-20010904/DTD/svg10.dtd">
<svg version="1.0" xmlns="http://www.w3.org/2000/svg"
 width="210.000000pt" height="210.000000pt" viewBox="0 0 210.000000 210.000000"
 preserveAspectRatio="xMidYMid meet">
<metadata>
Created by potrace 1.11, written by Peter Selinger 2001-2013
</metadata>
<g transform="translate(0.000000,210.000000) scale(0.100000,-0.100000)"
fill="#000000" stroke="none">
<path d="M350 1618 c-102 -177 -217 -377 -256 -444 l-71 -122 115 -199 c63
-109 126 -218 139 -243 14 -25 35 -61 47 -80 11 -19 30 -51 41 -71 11 -20 54
-95 95 -167 l75 -132 200 0 c189 0 202 1 218 20 9 11 17 24 17 30 0 9 39 73
60 98 6 6 8 12 5 12 -3 0 6 18 20 41 15 22 35 56 45 74 l19 35 -201 2 -202 3
-162 280 c-90 154 -163 286 -163 293 -1 7 24 57 55 110 31 53 67 115 79 137
13 22 61 105 107 185 l84 145 202 5 202 5 -55 94 c-30 51 -52 97 -49 102 3 5
0 8 -8 7 -7 -2 -14 7 -16 20 -2 12 -8 22 -14 22 -5 0 -7 8 -4 17 4 10 4 14 0
10 -4 -4 -13 2 -21 13 -13 19 -25 20 -216 20 l-202 -1 -185 -321z"/>
<path d="M1206 1925 c4 -8 0 -23 -7 -33 -13 -15 -12 -16 4 -3 9 8 19 12 20 10
2 -2 12 -23 22 -46 11 -24 23 -43 26 -43 4 0 10 -7 13 -16 3 -8 2 -12 -4 -9
-6 3 -10 1 -10 -4 0 -6 6 -11 13 -11 11 0 20 -13 69 -100 11 -19 26 -42 32
-50 7 -8 24 -35 38 -60 14 -25 73 -128 132 -230 141 -242 156 -269 156 -281 0
-6 -24 -52 -54 -102 -29 -51 -88 -151 -130 -224 -69 -120 -98 -172 -159 -285
-11 -20 -25 -34 -30 -31 -6 3 -7 1 -3 -6 4 -6 -1 -23 -11 -39 -10 -15 -25 -39
-33 -54 -7 -16 -17 -28 -22 -28 -5 0 -7 -4 -4 -9 3 -5 -2 -19 -12 -32 -20 -28
-42 -66 -42 -74 0 -3 80 -5 178 -5 l177 1 203 352 c111 194 210 366 220 382 9
17 31 55 49 86 18 31 33 62 33 69 0 11 -97 182 -326 577 -11 18 -55 95 -99
172 l-80 141 -182 0 c-159 0 -182 -2 -177 -15z"/>
<path d="M1110 1866 c0 -2 7 -7 16 -10 8 -3 12 -2 9 4 -6 10 -25 14 -25 6z"/>
</g>
</svg>
