<?xml version="1.0" standalone="no"?>
<!DOCTYPE svg PUBLIC "-//W3C//DTD SVG 1.1//EN" "http://www.w3.org/Graphics/SVG/1.1/DTD/svg11.dtd" >
<svg xmlns="http://www.w3.org/2000/svg">
<metadata></metadata>
<defs>
<font id="icelandregular" horiz-adv-x="1064" >
<font-face units-per-em="2048" ascent="1638" descent="-410" />
<missing-glyph horiz-adv-x="409" />
<glyph horiz-adv-x="0" />
<glyph horiz-adv-x="0" />
<glyph unicode="&#xd;" horiz-adv-x="0" />
<glyph unicode=" "  horiz-adv-x="409" />
<glyph unicode="&#x09;" horiz-adv-x="409" />
<glyph unicode="&#xa0;" horiz-adv-x="409" />
<glyph unicode="!" horiz-adv-x="573" d="M184 0v164h185v-164h-185zM205 287v717h164v-558z" />
<glyph unicode="&#x22;" horiz-adv-x="798" d="M184 676v471h144v-332zM491 676v471h144v-332z" />
<glyph unicode="#" d="M41 184l147 123h62l55 287h-184l147 123h62l10 61l147 123l-34 -184h286l11 61l147 123l-35 -184h185l-148 -123h-61l-56 -287h185l-148 -123h-61l-13 -61l-145 -123l35 184h-287l-12 -61l-146 -123l35 184h-184zM373 307h286l56 287h-287z" />
<glyph unicode="$" d="M143 0l144 143h184v287h-164q-59 0 -101 42t-42 101v287q0 59 42 101.5t101 42.5h164l123 122v-122h328l-144 -144h-184v-287h164q59 0 101 -42t42 -101v-287q0 -59 -42 -101t-101 -42h-164l-123 -123v123h-328zM307 573h164v287h-164v-287zM594 143h164v287h-164v-287z " />
<glyph unicode="%" horiz-adv-x="1392" d="M123 717v287q0 59 42 101t101 42h144q59 0 101 -42t42 -101v-287q0 -59 -42 -101.5t-101 -42.5h-144q-59 0 -101 42t-42 102zM246 696h184v328h-184v-328zM367 0l510 1147h145l-504 -1147h-151zM840 143v287q0 59 42 101t101 42h143q59 0 101.5 -42t42.5 -101v-287 q0 -59 -42 -101t-102 -42h-143q-59 0 -101 42t-42 101zM963 123h184v328h-184v-328z" />
<glyph unicode="&#x26;" horiz-adv-x="1228" d="M205 143v246q0 31 11 58.5t31.5 49t46 34t54.5 12.5h103l-72 67q-51 51 -51 107v143q0 59 42 101.5t101 42.5h287q59 0 101 -42t42 -102v-143h-143v164h-287v-164l236 -236l73 72h305l-124 -123h-203l430 -430h-184l-105 100l-100 -100h-451q-59 0 -101 42t-42 101z M348 123h531l-314 307h-217v-307z" />
<glyph unicode="'" horiz-adv-x="491" d="M184 676v471h144v-332z" />
<glyph unicode="(" horiz-adv-x="655" d="M225 0v1004q0 59 42 101t102 42h143v-123h-143v-1044h143v-123h-143q-59 0 -101.5 42t-42.5 101z" />
<glyph unicode=")" horiz-adv-x="655" d="M143 -20h144v1044h-144v123h144q59 0 101 -42t42 -101v-1004q0 -59 -42 -101t-101 -42h-144v123z" />
<glyph unicode="*" horiz-adv-x="1093" d="M143 862l123 123h185l-123 -123h-185zM260 1149h174l131 -131h-174zM262 578v174l131 129v-172zM424 584v184l123 -123v-184zM547 1083v185l123 -123v-184zM549 702h174l131 -131h-174zM643 739l123 123h184l-123 -123h-184zM700 846v174l131 131v-174z" />
<glyph unicode="+" d="M174 287v143h287v287h143v-287h287v-143h-287v-287h-143v287h-287z" />
<glyph unicode="," horiz-adv-x="532" d="M164 0v164h61q59 0 101.5 -42t42.5 -102v-184l-123 -143v307h-82z" />
<glyph unicode="-" horiz-adv-x="573" d="M41 287l143 143h348l-143 -143h-348z" />
<glyph unicode="." horiz-adv-x="512" d="M164 0v164h184v-164h-184z" />
<glyph unicode="/" horiz-adv-x="634" d="M-41 -143l571 1290h146l-565 -1290h-152z" />
<glyph unicode="0" d="M174 143v717q0 59 42 101.5t101 42.5h431q59 0 101 -42t42 -102v-717q0 -59 -42 -101t-101 -42h-431q-59 0 -101 42t-42 101zM338 143h389v717h-389v-717z" />
<glyph unicode="1" d="M133 606l397 398h218v-861h143v-143h-717v143h410v686h-21l-327 -327z" />
<glyph unicode="2" d="M174 0v215l553 406v239h-389v-143h-164v143q0 59 42 101.5t101 42.5h431q59 0 101 -42t42 -102v-297l-543 -399v-21h543v-143h-717z" />
<glyph unicode="3" d="M174 143v144h164v-144h389v287h-266v119l287 291v20h-574v144h717v-207l-223 -224v-20q0 2 22 2h24.5t33.5 -2q59 -2 101 -44t42 -99v-267q0 -59 -42 -101t-101 -42h-431q-59 0 -101 42t-42 101z" />
<glyph unicode="4" d="M174 143v279q0 25 1 39t5 25.5t12.5 20.5t20.5 23l469 474h229l-594 -586v-131h410v348l164 164v-799h-164v143h-553z" />
<glyph unicode="5" d="M174 143v144h164v-144h389v410h-553v451h717v-144h-574v-164h431q59 0 101 -42t42 -101v-410q0 -59 -42 -101t-101 -42h-431q-59 0 -101 42t-42 101z" />
<glyph unicode="6" d="M174 143v717q0 59 42 101.5t101 42.5h574v-144h-553v-266h430q59 0 101 -42t42 -101v-308q0 -59 -42 -101t-101 -42h-451q-59 0 -101 42t-42 101zM338 143h410v308h-410v-308z" />
<glyph unicode="7" d="M174 717v287h717v-535l-471 -469h-209l516 518v342h-389v-143h-164z" />
<glyph unicode="8" d="M154 143v308q0 51 33.5 85.5t88.5 34.5v289q0 59 33 101.5t90 42.5h267q57 0 89.5 -42t32.5 -102v-289q55 0 89 -33.5t34 -86.5v-308q0 -59 -42 -101t-101 -42h-471q-59 0 -101 42t-42 101zM317 143h431v308h-431v-308zM410 573h245v287h-245v-287z" />
<glyph unicode="9" d="M123 553v307q0 59 42 101.5t101 42.5h451q59 0 101 -42t42 -102v-717q0 -59 -42 -101t-101 -42h-574v143h553v267h-430q-59 0 -101 42t-42 101zM287 553h409v307h-409v-307z" />
<glyph unicode=":" horiz-adv-x="471" d="M146 0v164h184v-164h-184zM146 553v164h184v-164h-184z" />
<glyph unicode=";" horiz-adv-x="471" d="M125 0v164h61q59 0 101.5 -42t42.5 -102v-184l-123 -143v307h-82zM125 553v164h184v-164h-184z" />
<glyph unicode="&#x3c;" d="M225 426l514 430l101 -100l-410 -330l410 -311l-101 -101z" />
<glyph unicode="=" d="M174 143v144h717v-144h-717zM174 430v143h717v-143h-717z" />
<glyph unicode="&#x3e;" horiz-adv-x="942" d="M102 115l410 311l-410 330l101 100l514 -430l-514 -412z" />
<glyph unicode="?" horiz-adv-x="1044" d="M164 717v143q0 59 42 101.5t101 42.5h430q59 0 101.5 -42t42.5 -102v-287q0 -59 -42 -101t-102 -42h-143v-143h-164v143q0 59 42 101t101 42h144v287h-389v-143h-164zM430 0v164h184v-164h-184z" />
<glyph unicode="@" horiz-adv-x="1536" d="M102 -266v1249q0 59 42 101t102 42h1044q59 0 101.5 -42t42.5 -101v-840q0 -59 -42 -101t-102 -42h-284q-51 0 -84 30.5t-35 80.5l-150 -111h-225q-53 0 -86 33t-33 84q0 16 2 26l29 144q12 59 62.5 101t109.5 42h348l-147 -123h-226l-36 -184h352q0 14 2 20l6 31l80 420 h-512l147 123h389q51 0 84 -33t33 -84q0 -16 -2 -27l-86 -450h283v881h-1086v-1291h1186l-166 -123h-979q-31 0 -60.5 11.5t-52 32t-37 46t-14.5 54.5z" />
<glyph unicode="A" horiz-adv-x="1228" d="M184 0v860q0 59 42 101.5t102 42.5h716v-1004h-163v287h-533v-287h-164zM348 307l123 123h410v430h-533v-553z" />
<glyph unicode="B" horiz-adv-x="1187" d="M184 0v717l144 143h-144v144h574q59 0 101 -42t42 -102v-287h4q59 0 99 -42t40 -101v-287q0 -59 -41.5 -101t-101.5 -42h-717zM348 143h533v287h-533v-287zM348 451l123 122h266v287h-389v-409z" />
<glyph unicode="C" horiz-adv-x="1157" d="M174 143v717q0 59 42 101.5t101 42.5h574q59 0 101 -42t42 -102v-143h-164v143h-532v-717h532v144h164v-144q0 -59 -42 -101t-101 -42h-574q-59 0 -101 42t-42 101z" />
<glyph unicode="D" horiz-adv-x="1218" d="M184 0v717l144 143h-144v144h717q57 0 100 -43t43 -101v-717q0 -57 -43 -100t-100 -43h-717zM348 20l123 123h410v717h-533v-840z" />
<glyph unicode="E" horiz-adv-x="1024" d="M184 0v717l144 143h-144v144h717v-144h-553v-409l123 122h430v-143h-553v-287h553v-143h-717z" />
<glyph unicode="F" horiz-adv-x="1003" d="M184 0v717l144 143h-144v144h717v-144h-553v-553l123 123h430v-143h-553v-287h-164z" />
<glyph unicode="G" horiz-adv-x="1167" d="M174 143v717q0 57 43 100.5t100 43.5h717v-144h-696v-717h532v287h-266l144 143h286v-573h-164v123l-122 -123h-431q-57 0 -100 43t-43 100z" />
<glyph unicode="H" horiz-adv-x="1228" d="M184 0v1004h164v-553l123 122h410v431h163v-1004h-163v430h-533v-430h-164z" />
<glyph unicode="I" horiz-adv-x="532" d="M184 0v1004h164v-1004h-164z" />
<glyph unicode="J" horiz-adv-x="1024" d="M123 143v144h164v-144h389v717h-553v144h717v-861q0 -45 -41 -92q-45 -51 -103 -51h-430q-57 0 -100 43t-43 100z" />
<glyph unicode="K" horiz-adv-x="1187" d="M184 0v1004h164v-547l545 547h203l-455 -424v-21h260q59 0 101 -42t42 -101v-416h-163v430h-533v-430h-164z" />
<glyph unicode="L" horiz-adv-x="921" d="M184 0v1004h164v-861h389v144h164v-287h-717z" />
<glyph unicode="M" horiz-adv-x="1372" d="M184 2v1002h293l203 -480h20l203 480h285v-1002h-164v754l61 102h-92l-252 -571h-118l-244 571h-92l61 -102v-754h-164z" />
<glyph unicode="N" horiz-adv-x="1228" d="M184 2v1004h289l387 -850h82l-61 102v748h163v-1004h-286l-389 850h-82l61 -102v-748h-164z" />
<glyph unicode="O" horiz-adv-x="1208" d="M174 143v717q0 59 42 101.5t101 42.5h574q59 0 101 -42t42 -102v-717q0 -59 -42 -101t-101 -42h-574q-59 0 -101 42t-42 101zM338 143h532v717h-532v-717z" />
<glyph unicode="P" horiz-adv-x="1198" d="M184 0v717l144 143h-144v144h717q57 0 100 -43t43 -101v-430q0 -57 -43 -100t-100 -43h-553v-287h-164zM348 307l123 123h410v430h-533v-553z" />
<glyph unicode="Q" horiz-adv-x="1208" d="M174 143v717q0 59 42 101.5t101 42.5h574q59 0 101 -42t42 -102v-717q0 -59 -42 -101t-101 -42h-164v-143h-143v143h-267q-59 0 -101 42t-42 101zM338 143h246l143 146v-146h143v717h-532v-717z" />
<glyph unicode="R" horiz-adv-x="1177" d="M184 0v719l144 141h-144v144h717q57 0 100 -43t43 -101v-389q0 -164 -143 -164h-123v-22l287 -285h-209l-426 430h451v430h-533v-860h-164z" />
<glyph unicode="S" horiz-adv-x="1003" d="M143 0v143h553v287h-409q-59 0 -101.5 42t-42.5 101v287q0 59 42 101.5t102 42.5h573v-144h-553v-287h410q59 0 101 -42t42 -101v-287q0 -59 -42 -101t-101 -42h-574z" />
<glyph unicode="T" horiz-adv-x="778" d="M10 860v144h758v-144h-297v-860h-164v860h-297z" />
<glyph unicode="U" horiz-adv-x="1228" d="M184 143v861h164v-861h533v861h163v-1004h-163v123l-123 -123h-430q-59 0 -101.5 42t-42.5 101z" />
<glyph unicode="V" horiz-adv-x="1146" d="M61 1004h185l307 -865h41l307 865h184l-383 -1004h-266z" />
<glyph unicode="W" horiz-adv-x="1556" d="M72 1004h184l164 -865h41l235 865h164l236 -865h41l163 865h185l-225 -1004h-277l-195 735h-20l-195 -735h-276z" />
<glyph unicode="X" horiz-adv-x="1003" d="M20 0l371 522l-350 482h197l262 -388h20l250 388h193l-347 -482l367 -522h-192l-285 410h-21l-268 -410h-197z" />
<glyph unicode="Y" horiz-adv-x="1146" d="M143 430v574h164v-574h533v574h164v-574q0 -59 -42 -101t-102 -42h-205v-287h-163v287h-205q-59 0 -101.5 42t-42.5 101z" />
<glyph unicode="Z" horiz-adv-x="1085" d="M113 0v174l686 686h-686v144h860v-177l-686 -684h686v-143h-860z" />
<glyph unicode="[" horiz-adv-x="655" d="M225 -143v1290h287v-123h-143v-1044h143v-123h-287z" />
<glyph unicode="\" horiz-adv-x="634" d="M-82 1147h145l572 -1290h-152z" />
<glyph unicode="]" horiz-adv-x="655" d="M143 -20h144v1044h-144v123h287v-1290h-287v123z" />
<glyph unicode="^" d="M111 803l411 512l432 -512l-102 -103l-328 412l-311 -412z" />
<glyph unicode="_" horiz-adv-x="942" d="M-10 -143h962v-144h-962v144z" />
<glyph unicode="`" horiz-adv-x="307" d="M-41 1147h143l205 -287h-143z" />
<glyph unicode="a" horiz-adv-x="972" d="M113 143v144q0 59 42 101t101 42h410l-123 -121h-287v-186h430v471h-573l123 123h450q59 0 101 -42t42 -102v-573h-143v104l-123 -104h-307q-59 0 -101 42t-42 101z" />
<glyph unicode="b" horiz-adv-x="1024" d="M164 -20v1064l143 144v-574l103 103h327q59 0 101.5 -42t42.5 -102v-430q0 -59 -42 -101t-102 -42h-430v121zM307 123h430v471h-430v-471z" />
<glyph unicode="c" horiz-adv-x="757" d="M143 143v430q0 59 42 101.5t102 42.5h471l-125 -123h-346v-471h430v-123h-430q-59 0 -101.5 42t-42.5 101z" />
<glyph unicode="d" horiz-adv-x="1024" d="M143 143v430q0 59 42 101.5t102 42.5h430v327l143 144v-1188h-143v102l-103 -102h-327q-59 0 -101.5 42t-42.5 101zM287 123h430v573l-103 -102h-327v-471z" />
<glyph unicode="e" horiz-adv-x="942" d="M143 143v430q0 59 42 101.5t102 42.5h430q59 0 101 -42t42 -102v-143l-143 -143h-410l123 123h287v184h-430v-471h573v-123h-573q-59 0 -101.5 42t-42.5 101z" />
<glyph unicode="f" horiz-adv-x="747" d="M164 0v1004q0 59 42 101t101 42h471l-125 -123h-346v-389l84 82h367l-125 -123h-326v-594h-143z" />
<glyph unicode="g" horiz-adv-x="1034" d="M143 -430l123 123h471v411l-123 -104h-307q-59 0 -101 42t-42 101v430q0 59 42 101.5t101 42.5h635l-123 -123h-512v-471h430v409h144v-819q0 -59 -42 -101t-102 -42h-594z" />
<glyph unicode="h" horiz-adv-x="1024" d="M164 0v1044l143 144v-574l103 103h327q59 0 101.5 -42t42.5 -102v-573h-144v594h-430v-594h-143z" />
<glyph unicode="i" horiz-adv-x="430" d="M143 0v614l144 144v-758h-144zM143 840v164h144v-164h-144z" />
<glyph unicode="j" horiz-adv-x="450" d="M-72 -430l125 123h101v921l143 144v-1045q0 -59 -42 -101t-101 -42h-226zM154 840v164h143v-164h-143z" />
<glyph unicode="k" horiz-adv-x="1003" d="M164 0v1044l143 144v-862l441 391h174l-326 -285v-20h141q59 0 101.5 -42t42.5 -102v-268h-144v307h-430v-307h-143z" />
<glyph unicode="l" horiz-adv-x="471" d="M164 0v1044l143 144v-1188h-143z" />
<glyph unicode="m" horiz-adv-x="1495" d="M143 0v717h144v-103l102 103h287q125 0 141 -105l105 105h286q59 0 101.5 -42t42.5 -102v-573h-144v594h-389v-594h-143v594h-389v-594h-144z" />
<glyph unicode="n" horiz-adv-x="1003" d="M143 0v717h144v-103l102 103h328q59 0 101 -42t42 -102v-573h-143v594h-430v-594h-144z" />
<glyph unicode="o" horiz-adv-x="1003" d="M143 143v430q0 59 42 101.5t102 42.5h430q59 0 101 -42t42 -102v-430q0 -59 -42 -101t-101 -42h-430q-59 0 -101.5 42t-42.5 101zM287 123h430v471h-430v-471z" />
<glyph unicode="p" horiz-adv-x="1003" d="M143 -430v1147h144v-103l102 103h328q59 0 101 -42t42 -102v-430q0 -59 -42 -101t-101 -42h-430v-430h-144zM287 20l102 103h328v471h-430v-574z" />
<glyph unicode="q" horiz-adv-x="1003" d="M143 143v430q0 59 42 101.5t102 42.5h573v-1024l-143 -144v553l-103 -102h-327q-59 0 -101.5 42t-42.5 101zM287 123h430v573l-103 -102h-327v-471z" />
<glyph unicode="r" horiz-adv-x="798" d="M143 0v717h144v-103l102 103h184q59 0 101.5 -42t42.5 -102v-143h-144v164h-286v-594h-144z" />
<glyph unicode="s" horiz-adv-x="798" d="M113 0v123h430v184h-287q-59 0 -101 42t-42 102v122q0 59 42 101.5t101 42.5h471l-125 -123h-346v-164h287q59 0 101 -42t42 -101v-144q0 -59 -42 -101t-101 -42h-430z" />
<glyph unicode="t" horiz-adv-x="675" d="M-20 594l122 123h82v143l144 144v-287h286v-123h-286v-471h286v-123h-286q-59 0 -101.5 42t-42.5 101v451h-204z" />
<glyph unicode="u" horiz-adv-x="1003" d="M143 143v574h144v-594h430v594h143v-717h-143v102l-103 -102h-327q-59 0 -101.5 42t-42.5 101z" />
<glyph unicode="v" horiz-adv-x="860" d="M51 717h164l195 -598h41l194 598h164l-279 -717h-208z" />
<glyph unicode="w" horiz-adv-x="1249" d="M82 717h154l133 -598h41l147 598h143l140 -598h41l133 598h153l-196 -717h-226l-110 489h-21l-114 -489h-226z" />
<glyph unicode="x" horiz-adv-x="798" d="M20 0l285 377l-264 340h172l178 -254h21l170 254h176l-269 -340l289 -377h-176l-194 283h-21l-194 -283h-173z" />
<glyph unicode="y" horiz-adv-x="1013" d="M123 -430l123 123h471v409l-103 -102h-327q-59 0 -101.5 42t-42.5 101v574h144v-594h430v594h143v-1004q0 -59 -42 -101t-101 -42h-594z" />
<glyph unicode="z" horiz-adv-x="778" d="M82 0v143l450 430v21h-450v123h614v-144l-450 -430v-20h450v-123h-614z" />
<glyph unicode="{" horiz-adv-x="655" d="M102 430v143h123v431q0 57 43 100t101 43h143v-123h-143v-442l-82 -82l82 -82v-438h143v-123h-143q-57 0 -100.5 43t-43.5 100v430h-123z" />
<glyph unicode="|" horiz-adv-x="552" d="M205 -143v1290h143v-1290h-143z" />
<glyph unicode="}" horiz-adv-x="655" d="M143 -20h144v438l82 82l-82 82v442h-144v123h144q57 0 100 -43t43 -100v-431h123v-143h-123v-430q0 -57 -43 -100t-100 -43h-144v123z" />
<glyph unicode="~" d="M205 287v143q0 61 42 102t101 41h68q59 0 102 -43l121 -120h98v163h123v-143q0 -59 -42 -101t-101 -42h-66q-59 0 -102 43l-121 121h-100v-164h-123z" />
<glyph unicode="&#xa1;" horiz-adv-x="573" d="M184 270l164 160v-717h-164v557zM184 553v164h185v-164h-185z" />
<glyph unicode="&#xa2;" horiz-adv-x="880" d="M184 143v430q0 59 42 101.5t102 42.5h164l122 123v-123h246l-125 -123h-121v-471h185v-123h-185l-122 -123v123h-164q-59 0 -101.5 42t-42.5 101zM328 123h164v471h-164v-471z" />
<glyph unicode="&#xa3;" d="M205 0v143h143v287h-143v123h110v20l-59 58q-51 51 -51 106v123q0 59 42 101.5t101 42.5h430q59 0 101.5 -42t42.5 -102v-143h-164v143h-389v-164l143 -143h184l-125 -123h-59v-287h246v144h164v-144q0 -59 -42 -101t-102 -42h-573z" />
<glyph unicode="&#xa4;" d="M164 166l115 113q-59 59 -66 67q-29 39 -29 84t29 86q4 6 19.5 22.5t43.5 43.5l-112 112l100 101l115 -111l43 43t24 21q39 29 84 28q47 0 88 -28q8 -6 24.5 -22.5l43.5 -43.5l115 113l100 -101l-115 -112q29 -27 44.5 -43.5t19.5 -22.5q29 -41 29 -84q0 -45 -29 -86 q-4 -6 -19.5 -22.5t-44.5 -42.5l115 -115l-100 -100l-117 112l-43 -43t-25 -20q-39 -29 -84 -29t-86 29q-8 4 -24 20.5t-43 42.5l-115 -112zM301 430l229 -229l232 229l-232 232z" />
<glyph unicode="&#xa5;" d="M143 1004h164l246 -472h20l246 472h164l-246 -451h226l-123 -123h-195v-164h318l-123 -123h-195v-143h-164v143h-317l123 123h194v164h-317l123 123h102z" />
<glyph unicode="&#xa6;" horiz-adv-x="552" d="M205 -143v430h143v-430h-143zM205 717v430h143v-430h-143z" />
<glyph unicode="&#xa7;" horiz-adv-x="1003" d="M184 -430l146 143h295v60l-359 354q-55 55 -55 106v25q2 8 2 15.5v11.5v166l152 159l-97 97q-43 43 -43 102v51q0 59 41 101.5t103 42.5h450l-145 -144h-295v-59l358 -355q55 -55 56 -106v-25q-2 -8 -2 -15v-11v-166l-152 -160l96 -96q43 -43 43 -103v-51q0 -59 -41 -101 t-102 -42h-451zM367 236l270 -271v373l-270 270v-372z" />
<glyph unicode="&#xa8;" horiz-adv-x="491" d="M41 860v164h133v-164h-133zM317 860v164h134v-164h-134z" />
<glyph unicode="&#xa9;" horiz-adv-x="1863" d="M205 -143v1290q0 59 42 101t101 42h1168q59 0 101 -42t42 -101v-1290q0 -59 -42 -101.5t-101 -42.5h-1147q-31 0 -60.5 11.5t-52.5 32t-37 46t-14 54.5zM328 -164h1208v1331h-1208v-1331zM532 143v717q0 59 42 101.5t102 42.5h532q59 0 101.5 -42t42.5 -102v-143h-164 v143h-492v-717h492v144h164v-144q0 -59 -42 -101t-102 -42h-532q-59 0 -101.5 42t-42.5 101z" />
<glyph unicode="&#xaa;" horiz-adv-x="819" d="M102 881l123 123h318q59 0 101 -42t42 -102v-430h-143v105l-123 -105h-154q-59 0 -101 42t-42 101t42 101.5t101 42.5h152l-121 -121v-43h246v328h-441zM113 143v123h573v-123h-573z" />
<glyph unicode="&#xab;" horiz-adv-x="1044" d="M102 358l349 344l81 -100l-245 -244l245 -241l-81 -103zM512 358l348 344l82 -100l-246 -244l246 -241l-82 -103z" />
<glyph unicode="&#xac;" d="M174 430v143h707v-430h-144v287h-563z" />
<glyph unicode="&#xad;" horiz-adv-x="573" d="M41 287l143 143h348l-143 -143h-348z" />
<glyph unicode="&#xae;" horiz-adv-x="1536" d="M205 430v860q0 59 42 101.5t101 42.5h840q59 0 101 -42t42 -102v-860q0 -59 -42 -101t-101 -42h-819q-31 0 -60.5 11t-52.5 31.5t-37 46t-14 54.5zM328 410h880v901h-880v-901zM492 573v330l122 121h-122v123h430q57 0 100 -43t43 -100v-123q0 -70 -49 -107 q-41 -29 -94 -29h-17v-20l164 -152h-168l-266 267v-267h-143zM635 840h287v184h-287v-184z" />
<glyph unicode="&#xaf;" horiz-adv-x="491" d="M61 860v144h369v-144h-369z" />
<glyph unicode="&#xb0;" horiz-adv-x="757" d="M164 860v144q0 59 42 101t101 42h144q59 0 101 -42t42 -101v-144q0 -59 -42 -101t-101 -42h-144q-59 0 -101 42t-42 101zM287 840h184v184h-184v-184z" />
<glyph unicode="&#xb1;" d="M174 2v143h717v-143h-717zM174 430v143h287v287h143v-287h287v-143h-287v-287h-143v287h-287z" />
<glyph unicode="&#xb2;" horiz-adv-x="659" d="M113 573v175l290 200v76h-290v123h290q59 0 101.5 -42t42.5 -101v-93l-281 -194v-21h281v-123h-434z" />
<glyph unicode="&#xb3;" horiz-adv-x="659" d="M113 573v123h256v47l-121 121l145 150v10h-280v123h434v-135l-148 -148q148 -4 148 -147q0 -59 -42 -101.5t-102 -42.5h-290z" />
<glyph unicode="&#xb4;" horiz-adv-x="307" d="M-20 860l204 287h144l-205 -287h-143z" />
<glyph unicode="&#xb5;" horiz-adv-x="1024" d="M164 -430v1147h143v-594h430v594h144v-717h-144v102l-102 -102h-328v-430h-143z" />
<glyph unicode="&#xb6;" horiz-adv-x="1126" d="M205 430v430q0 59 42 101.5t101 42.5h656l-123 -123v-1065l-123 -123v1188h-185v-1065l-122 -123v594h-103q-59 0 -101 42t-42 101z" />
<glyph unicode="&#xb7;" horiz-adv-x="512" d="M164 410v164h184v-164h-184z" />
<glyph unicode="&#xb8;" horiz-adv-x="573" d="M61 -430l123 123h205v102h-205v107l123 118v-124h82q59 0 101 -41t42 -101v-41q0 -59 -41.5 -101t-101.5 -42h-328z" />
<glyph unicode="&#xb9;" horiz-adv-x="641" d="M82 860l231 287h205v-574h-147v431h-21l-112 -144h-156z" />
<glyph unicode="&#xba;" horiz-adv-x="839" d="M133 143v123h574v-123h-574zM133 573v287q0 59 42 101.5t101 42.5h287q59 0 101.5 -42t42.5 -102v-287q0 -59 -42 -101t-102 -42h-287q-59 0 -101 42t-42 101zM276 553h287v328h-287v-328z" />
<glyph unicode="&#xbb;" horiz-adv-x="1044" d="M102 117l246 241l-246 244l82 100l348 -344l-348 -344zM512 117l246 241l-246 244l82 100l348 -344l-348 -344z" />
<glyph unicode="&#xbc;" horiz-adv-x="1310" d="M61 860l232 287h205v-574h-148v431h-20l-113 -144h-156zM326 0l510 1147h145l-504 -1147h-151zM768 143v172l252 258l188 -2l-286 -286v-19h120l142 140h20v-406h-147v143h-289z" />
<glyph unicode="&#xbd;" horiz-adv-x="1310" d="M61 860l232 287h205v-574h-148v431h-20l-113 -144h-156zM326 0l510 1147h145l-504 -1147h-151zM805 0v174l291 201v76h-291v122h291q59 0 101 -42t42 -101v-92l-281 -195v-20h281v-123h-434z" />
<glyph unicode="&#xbe;" horiz-adv-x="1310" d="M102 573v123h256v47l-120 121l145 150v10h-281v123h435v-135l-148 -148q148 -4 148 -147q0 -59 -42 -101.5t-102 -42.5h-291zM285 0l510 1147h145l-504 -1147h-151zM768 143v172l252 258l188 -2l-286 -286v-19h120l142 140h20v-406h-147v143h-289z" />
<glyph unicode="&#xbf;" horiz-adv-x="921" d="M164 143q0 59 42 101.5t101 42.5h144v143h163v-143q0 -59 -42 -101.5t-101 -42.5h-143v-286h389v143h164v-143q0 -59 -42 -101.5t-102 -42.5h-430q-59 0 -101 42t-42 102v286zM430 553v164h184v-164h-184z" />
<glyph unicode="&#xc0;" horiz-adv-x="1228" d="M184 0v860q0 59 42 101.5t102 42.5h716v-1004h-163v287h-533v-287h-164zM348 307l123 123h410v430h-533v-553zM379 1434h143l205 -287h-143z" />
<glyph unicode="&#xc1;" horiz-adv-x="1228" d="M184 0v860q0 59 42 101.5t102 42.5h716v-1004h-163v287h-533v-287h-164zM348 307l123 123h410v430h-533v-553zM533 1147l204 287h144l-205 -287h-143z" />
<glyph unicode="&#xc2;" horiz-adv-x="1228" d="M184 0v860q0 59 42 101.5t102 42.5h716v-1004h-163v287h-533v-287h-164zM348 307l123 123h410v430h-533v-553zM400 1147l163 266h144l164 -266h-144l-82 184h-20l-82 -184h-143z" />
<glyph unicode="&#xc3;" horiz-adv-x="1228" d="M184 0v860q0 59 42 101.5t102 42.5h716v-1004h-163v287h-533v-287h-164zM348 307l123 123h410v430h-533v-553zM383 1149q0 16 3 56t12 106q4 43 36.5 72.5t75.5 29.5q63 0 107 -45l123 -129l12 168h102q0 -35 -12 -159q-4 -45 -35 -76t-72 -31q-70 0 -114 49l-117 129 l-18 -170h-103z" />
<glyph unicode="&#xc4;" horiz-adv-x="1228" d="M184 0v860q0 59 42 101.5t102 42.5h716v-1004h-163v287h-533v-287h-164zM348 307l123 123h410v430h-533v-553zM426 1147v164h133v-164h-133zM702 1147v164h134v-164h-134z" />
<glyph unicode="&#xc5;" horiz-adv-x="1228" d="M184 0v860q0 59 42 101.5t102 42.5h716v-1004h-163v287h-533v-287h-164zM348 307l123 123h410v430h-533v-553zM434 1255q0 53 39 92l62 64q39 43 92 43q51 0 92 -43l62 -64q39 -39 39 -92t-39 -92l-62 -63q-23 -23 -67 -23h-50q-45 0 -67 23l-62 63q-39 39 -39 92z M525 1255l102 -102l102 102l-102 103z" />
<glyph unicode="&#xc6;" horiz-adv-x="1454" d="M184 0v860q0 59 42 101.5t102 42.5h1003v-144h-430v-409l123 122h307v-143h-430v-287h430v-143h-594v287h-389v-287h-164zM348 307l123 123h266v430h-389v-553z" />
<glyph unicode="&#xc7;" horiz-adv-x="1157" d="M174 143v717q0 59 42 101.5t101 42.5h574q59 0 101 -42t42 -102v-143h-164v143h-532v-717h532v144h164v-144q0 -59 -42 -101t-101 -42h-277v-104h82q59 0 101.5 -41t42.5 -101v-41q0 -59 -42 -101t-102 -42h-327l123 123h204v102h-204v107l102 98h-277q-59 0 -101 42 t-42 101z" />
<glyph unicode="&#xc8;" horiz-adv-x="1024" d="M184 0v717l144 143h-144v144h717v-144h-553v-409l123 122h430v-143h-553v-287h553v-143h-717zM317 1434h143l205 -287h-143z" />
<glyph unicode="&#xc9;" horiz-adv-x="1024" d="M184 0v717l144 143h-144v144h717v-144h-553v-409l123 122h430v-143h-553v-287h553v-143h-717zM451 1147l204 287h144l-205 -287h-143z" />
<glyph unicode="&#xca;" horiz-adv-x="1024" d="M184 0v717l144 143h-144v144h717v-144h-553v-409l123 122h430v-143h-553v-287h553v-143h-717zM308 1147l163 266h144l164 -266h-144l-82 184h-20l-82 -184h-143z" />
<glyph unicode="&#xcb;" horiz-adv-x="1024" d="M184 0v717l144 143h-144v144h717v-144h-553v-409l123 122h430v-143h-553v-287h553v-143h-717zM365 1147v164h133v-164h-133zM641 1147v164h134v-164h-134z" />
<glyph unicode="&#xcc;" horiz-adv-x="532" d="M31 1434h143l205 -287h-143zM184 0v1004h164v-1004h-164z" />
<glyph unicode="&#xcd;" horiz-adv-x="532" d="M164 1147l204 287h144l-205 -287h-143zM184 0v1004h164v-1004h-164z" />
<glyph unicode="&#xce;" horiz-adv-x="532" d="M31 1147l163 266h144l164 -266h-144l-82 184h-20l-82 -184h-143zM184 0v1004h164v-1004h-164z" />
<glyph unicode="&#xcf;" horiz-adv-x="532" d="M72 1147v164h133v-164h-133zM184 0v1004h164v-1004h-164zM348 1147v164h134v-164h-134z" />
<glyph unicode="&#xd0;" horiz-adv-x="1249" d="M72 430v143h143v144l143 143h-143v144h717q57 0 100 -43t43 -101v-717q0 -57 -43 -100t-100 -43h-717v430h-143zM379 20l123 123h409v717h-532v-287h266l-143 -143h-123v-410z" />
<glyph unicode="&#xd1;" horiz-adv-x="1228" d="M184 2v1004h289l387 -850h82l-61 102v748h163v-1004h-286l-389 850h-82l61 -102v-748h-164zM409 1149q0 16 3 56t12 106q4 43 36.5 72.5t75.5 29.5q63 0 107 -45l123 -129l12 168h102q0 -35 -12 -159q-4 -45 -35 -76t-72 -31q-70 0 -114 49l-117 129l-18 -170h-103z" />
<glyph unicode="&#xd2;" horiz-adv-x="1208" d="M174 143v717q0 59 42 101.5t101 42.5h574q59 0 101 -42t42 -102v-717q0 -59 -42 -101t-101 -42h-574q-59 0 -101 42t-42 101zM338 143h532v717h-532v-717zM358 1434h143l205 -287h-143z" />
<glyph unicode="&#xd3;" horiz-adv-x="1208" d="M174 143v717q0 59 42 101.5t101 42.5h574q59 0 101 -42t42 -102v-717q0 -59 -42 -101t-101 -42h-574q-59 0 -101 42t-42 101zM338 143h532v717h-532v-717zM492 1147l204 287h144l-205 -287h-143z" />
<glyph unicode="&#xd4;" horiz-adv-x="1208" d="M174 143v717q0 59 42 101.5t101 42.5h574q59 0 101 -42t42 -102v-717q0 -59 -42 -101t-101 -42h-574q-59 0 -101 42t-42 101zM338 143h532v717h-532v-717zM379 1147l163 266h144l164 -266h-144l-82 184h-20l-82 -184h-143z" />
<glyph unicode="&#xd5;" horiz-adv-x="1208" d="M174 143v717q0 59 42 101.5t101 42.5h574q59 0 101 -42t42 -102v-717q0 -59 -42 -101t-101 -42h-574q-59 0 -101 42t-42 101zM338 143h532v717h-532v-717zM358 1149q0 16 3 56t12 106q4 43 36.5 72.5t75.5 29.5q63 0 107 -45l123 -129l12 168h102q0 -35 -12 -159 q-4 -45 -35 -76t-72 -31q-70 0 -114 49l-117 129l-18 -170h-103z" />
<glyph unicode="&#xd6;" horiz-adv-x="1208" d="M174 143v717q0 59 42 101.5t101 42.5h574q59 0 101 -42t42 -102v-717q0 -59 -42 -101t-101 -42h-574q-59 0 -101 42t-42 101zM338 143h532v717h-532v-717zM410 1147v164h133v-164h-133zM686 1147v164h134v-164h-134z" />
<glyph unicode="&#xd7;" d="M225 156l205 202l-205 203l101 101l206 -203l207 203l101 -101l-205 -203l205 -202l-101 -101l-207 203l-206 -203z" />
<glyph unicode="&#xd8;" horiz-adv-x="1228" d="M123 12l84 109l-23 22v717q0 59 42 101.5t102 42.5h573l23 -23l86 98l96 -96l-86 -98l24 -25v-717q0 -59 -43 -101t-100 -42h-573l-27 27l-86 -113zM348 291h21l434 549v20h-455v-569zM418 143h463v576h-21l-442 -555v-21z" />
<glyph unicode="&#xd9;" horiz-adv-x="1167" d="M184 143v861h164v-861h533v861h163v-1004h-163v123l-123 -123h-430q-59 0 -101.5 42t-42.5 101zM358 1434h143l205 -287h-143z" />
<glyph unicode="&#xda;" horiz-adv-x="1167" d="M184 143v861h164v-861h533v861h163v-1004h-163v123l-123 -123h-430q-59 0 -101.5 42t-42.5 101zM512 1147l204 287h144l-205 -287h-143z" />
<glyph unicode="&#xdb;" horiz-adv-x="1167" d="M184 143v861h164v-861h533v861h163v-1004h-163v123l-123 -123h-430q-59 0 -101.5 42t-42.5 101zM379 1147l163 266h144l164 -266h-144l-82 184h-20l-82 -184h-143z" />
<glyph unicode="&#xdc;" horiz-adv-x="1167" d="M184 143v861h164v-861h533v861h163v-1004h-163v123l-123 -123h-430q-59 0 -101.5 42t-42.5 101zM410 1147v164h133v-164h-133zM686 1147v164h134v-164h-134z" />
<glyph unicode="&#xdd;" horiz-adv-x="1085" d="M143 430v574h164v-574h533v574h164v-574q0 -59 -42 -101t-102 -42h-205v-287h-163v287h-205q-59 0 -101.5 42t-42.5 101zM472 1147l204 287h144l-205 -287h-143z" />
<glyph unicode="&#xde;" horiz-adv-x="1187" d="M184 0v1004h164v-144h553q57 0 100 -43t43 -100v-430q0 -57 -43 -100.5t-100 -43.5h-553v-143h-164zM348 164l123 123h410v430h-533v-553z" />
<glyph unicode="&#xdf;" horiz-adv-x="1024" d="M164 0v1004q0 59 42 101t101 42h287q59 0 101 -42t42 -101v-185l-102 -102h102q59 0 101.5 -42t42.5 -102v-430q0 -59 -42 -101t-102 -42h-389l123 123h266v471h-266l123 123v307h-287v-1024h-143z" />
<glyph unicode="&#xe0;" horiz-adv-x="972" d="M113 143v144q0 59 42 101t101 42h410l-123 -121h-287v-186h430v471h-573l123 123h450q59 0 101 -42t42 -102v-573h-143v104l-123 -104h-307q-59 0 -101 42t-42 101zM266 1147h143l205 -287h-143z" />
<glyph unicode="&#xe1;" horiz-adv-x="972" d="M113 143v144q0 59 42 101t101 42h410l-123 -121h-287v-186h430v471h-573l123 123h450q59 0 101 -42t42 -102v-573h-143v104l-123 -104h-307q-59 0 -101 42t-42 101zM390 860l204 287h144l-205 -287h-143z" />
<glyph unicode="&#xe2;" horiz-adv-x="972" d="M113 143v144q0 59 42 101t101 42h410l-123 -121h-287v-186h430v471h-573l123 123h450q59 0 101 -42t42 -102v-573h-143v104l-123 -104h-307q-59 0 -101 42t-42 101zM267 860l163 266h144l164 -266h-144l-82 184h-20l-82 -184h-143z" />
<glyph unicode="&#xe3;" horiz-adv-x="972" d="M113 143v144q0 59 42 101t101 42h410l-123 -121h-287v-186h430v471h-573l123 123h450q59 0 101 -42t42 -102v-573h-143v104l-123 -104h-307q-59 0 -101 42t-42 101zM246 862q0 16 3 56t12 106q4 43 36.5 72.5t75.5 29.5q63 0 107 -45l123 -129l12 168h102q0 -35 -12 -159 q-4 -45 -35 -76t-72 -31q-70 0 -114 49l-117 129l-18 -170h-103z" />
<glyph unicode="&#xe4;" horiz-adv-x="972" d="M113 143v144q0 59 42 101t101 42h410l-123 -121h-287v-186h430v471h-573l123 123h450q59 0 101 -42t42 -102v-573h-143v104l-123 -104h-307q-59 0 -101 42t-42 101zM297 860v164h133v-164h-133zM573 860v164h134v-164h-134z" />
<glyph unicode="&#xe5;" horiz-adv-x="972" d="M113 143v144q0 59 42 101t101 42h410l-123 -121h-287v-186h430v471h-573l123 123h450q59 0 101 -42t42 -102v-573h-143v104l-123 -104h-307q-59 0 -101 42t-42 101zM301 1028q0 53 39 92l62 64q39 43 92 43q51 0 92 -43l62 -64q39 -39 39 -92t-39 -92l-62 -63 q-23 -23 -67 -23h-50q-45 0 -67 23l-62 63q-39 39 -39 92zM392 1028l102 -102l102 102l-102 103z" />
<glyph unicode="&#xe6;" horiz-adv-x="1361" d="M113 143v144q0 59 42 101t101 42h358l-122 -121h-236v-186h381q-2 6 -2 20v451h-522l123 123h399l72 -72l71 72h379q59 0 101 -42t42 -102v-143l-143 -143h-358l123 121h235v186h-379v-471h502v-123h-502q-49 0 -88 30.5t-51 78.5l-127 -109h-256q-59 0 -101 42t-42 101z " />
<glyph unicode="&#xe7;" horiz-adv-x="757" d="M143 143v430q0 59 42 101.5t102 42.5h471l-125 -123h-346v-471h430v-123h-256v-104h82q59 0 101 -41t42 -101v-41q0 -59 -42 -101t-101 -42h-328l123 123h205v102h-205v107l102 98h-153q-59 0 -101.5 42t-42.5 101z" />
<glyph unicode="&#xe8;" horiz-adv-x="942" d="M143 143v430q0 59 42 101.5t102 42.5h430q59 0 101 -42t42 -102v-143l-143 -143h-410l123 123h287v184h-430v-471h573v-123h-573q-59 0 -101.5 42t-42.5 101zM266 1147h143l205 -287h-143z" />
<glyph unicode="&#xe9;" horiz-adv-x="942" d="M143 143v430q0 59 42 101.5t102 42.5h430q59 0 101 -42t42 -102v-143l-143 -143h-410l123 123h287v184h-430v-471h573v-123h-573q-59 0 -101.5 42t-42.5 101zM410 860l204 287h144l-205 -287h-143z" />
<glyph unicode="&#xea;" horiz-adv-x="942" d="M143 143v430q0 59 42 101.5t102 42.5h430q59 0 101 -42t42 -102v-143l-143 -143h-410l123 123h287v184h-430v-471h573v-123h-573q-59 0 -101.5 42t-42.5 101zM267 860l163 266h144l164 -266h-144l-82 184h-20l-82 -184h-143z" />
<glyph unicode="&#xeb;" horiz-adv-x="942" d="M143 143v430q0 59 42 101.5t102 42.5h430q59 0 101 -42t42 -102v-143l-143 -143h-410l123 123h287v184h-430v-471h573v-123h-573q-59 0 -101.5 42t-42.5 101zM297 860v164h133v-164h-133zM573 860v164h134v-164h-134z" />
<glyph unicode="&#xec;" horiz-adv-x="430" d="M-49 1147h143l205 -287h-143zM112 0v614l144 144v-758h-144z" />
<glyph unicode="&#xed;" horiz-adv-x="430" d="M103 860l204 287h144l-205 -287h-143zM143 0v614l144 144v-758h-144z" />
<glyph unicode="&#xee;" horiz-adv-x="430" d="M-20 860l163 266h144l164 -266h-144l-82 184h-20l-82 -184h-143zM143 0v614l144 144v-758h-144z" />
<glyph unicode="&#xef;" horiz-adv-x="430" d="M33 860v164h133v-164h-133zM143 0v614l144 144v-758h-144zM309 860v164h134v-164h-134z" />
<glyph unicode="&#xf0;" horiz-adv-x="993" d="M133 143v267q0 59 42 101t101 42h431v68l-222 206l-209 -190v160l123 110l-123 117v164l213 -199l222 199v-154l-138 -125l226 -209q51 -45 51 -106v-451q0 -59 -42 -101t-101 -42h-431q-59 0 -101 42t-42 101zM276 123h431v409l-105 -102h-326v-307z" />
<glyph unicode="&#xf1;" horiz-adv-x="1003" d="M143 0v717h144v-103l102 103h328q59 0 101 -42t42 -102v-573h-143v594h-430v-594h-144zM276 862q0 16 3 56t12 106q4 43 36.5 72.5t75.5 29.5q63 0 107 -45l123 -129l12 168h102q0 -35 -12 -159q-4 -45 -35 -76t-72 -31q-70 0 -114 49l-117 129l-18 -170h-103z" />
<glyph unicode="&#xf2;" horiz-adv-x="1003" d="M143 143v430q0 59 42 101.5t102 42.5h430q59 0 101 -42t42 -102v-430q0 -59 -42 -101t-101 -42h-430q-59 0 -101.5 42t-42.5 101zM266 1147h143l205 -287h-143zM287 123h430v471h-430v-471z" />
<glyph unicode="&#xf3;" horiz-adv-x="1003" d="M143 143v430q0 59 42 101.5t102 42.5h430q59 0 101 -42t42 -102v-430q0 -59 -42 -101t-101 -42h-430q-59 0 -101.5 42t-42.5 101zM287 123h430v471h-430v-471zM410 860l204 287h144l-205 -287h-143z" />
<glyph unicode="&#xf4;" horiz-adv-x="1003" d="M143 143v430q0 59 42 101.5t102 42.5h430q59 0 101 -42t42 -102v-430q0 -59 -42 -101t-101 -42h-430q-59 0 -101.5 42t-42.5 101zM267 860l163 266h144l164 -266h-144l-82 184h-20l-82 -184h-143zM287 123h430v471h-430v-471z" />
<glyph unicode="&#xf5;" horiz-adv-x="1003" d="M143 143v430q0 59 42 101.5t102 42.5h430q59 0 101 -42t42 -102v-430q0 -59 -42 -101t-101 -42h-430q-59 0 -101.5 42t-42.5 101zM266 862q0 16 3 56t12 106q4 43 36.5 72.5t75.5 29.5q63 0 107 -45l123 -129l12 168h102q0 -35 -12 -159q-4 -45 -35 -76t-72 -31 q-70 0 -114 49l-117 129l-18 -170h-103zM287 123h430v471h-430v-471z" />
<glyph unicode="&#xf6;" horiz-adv-x="1003" d="M143 143v430q0 59 42 101.5t102 42.5h430q59 0 101 -42t42 -102v-430q0 -59 -42 -101t-101 -42h-430q-59 0 -101.5 42t-42.5 101zM287 123h430v471h-430v-471zM297 860v164h133v-164h-133zM573 860v164h134v-164h-134z" />
<glyph unicode="&#xf7;" d="M174 287v143h717v-143h-717zM440 0v164h184v-164h-184zM440 553v164h184v-164h-184z" />
<glyph unicode="&#xf8;" horiz-adv-x="1085" d="M133 43l74 76l-25 24v430q0 59 42 101.5t102 42.5h434l24 -27l72 72l96 -96l-71 -70l22 -23v-430q0 -59 -43 -101t-100 -42h-434l-23 23l-78 -78zM326 233h20l344 340v21h-364v-361zM406 123h354v350h-21l-333 -330v-20z" />
<glyph unicode="&#xf9;" horiz-adv-x="1003" d="M143 143v574h144v-594h430v594h143v-717h-143v102l-103 -102h-327q-59 0 -101.5 42t-42.5 101zM266 1147h143l205 -287h-143z" />
<glyph unicode="&#xfa;" horiz-adv-x="1003" d="M143 143v574h144v-594h430v594h143v-717h-143v102l-103 -102h-327q-59 0 -101.5 42t-42.5 101zM410 860l204 287h144l-205 -287h-143z" />
<glyph unicode="&#xfb;" horiz-adv-x="1003" d="M143 143v574h144v-594h430v594h143v-717h-143v102l-103 -102h-327q-59 0 -101.5 42t-42.5 101zM267 860l163 266h144l164 -266h-144l-82 184h-20l-82 -184h-143z" />
<glyph unicode="&#xfc;" horiz-adv-x="1003" d="M143 143v574h144v-594h430v594h143v-717h-143v102l-103 -102h-327q-59 0 -101.5 42t-42.5 101zM297 860v164h133v-164h-133zM573 860v164h134v-164h-134z" />
<glyph unicode="&#xfd;" horiz-adv-x="1013" d="M123 -430l123 123h471v409l-103 -102h-327q-59 0 -101.5 42t-42.5 101v574h144v-594h430v594h143v-1004q0 -59 -42 -101t-101 -42h-594zM410 860l204 287h144l-205 -287h-143z" />
<glyph unicode="&#xfe;" horiz-adv-x="1024" d="M164 -430v1474l143 144v-574l103 103h327q59 0 101.5 -42t42.5 -102v-430q0 -59 -42 -101t-102 -42h-430v-430h-143zM307 20l103 103h327v471h-430v-574z" />
<glyph unicode="&#xff;" horiz-adv-x="1013" d="M123 -430l123 123h471v409l-103 -102h-327q-59 0 -101.5 42t-42.5 101v574h144v-594h430v594h143v-1004q0 -59 -42 -101t-101 -42h-594zM297 860v164h133v-164h-133zM573 860v164h134v-164h-134z" />
<glyph unicode="&#x152;" horiz-adv-x="1443" d="M174 143v717q0 59 42 101.5t101 42.5h1004v-144h-430v-409l123 122h307v-143h-430v-287h430v-143h-1004q-59 0 -101 42t-42 101zM338 143h389v717h-389v-717z" />
<glyph unicode="&#x153;" horiz-adv-x="1443" d="M143 143v430q0 59 42 101.5t102 42.5h379l71 -72l72 72h379q59 0 101 -42t42 -102v-143l-143 -143h-359l123 121h236v186h-379v-471h502v-123h-502l-72 72l-71 -72h-379q-59 0 -101.5 42t-42.5 101zM287 123h379v471h-379v-471z" />
<glyph unicode="&#x2c6;" horiz-adv-x="430" d="M-20 860l163 266h144l164 -266h-144l-82 184h-20l-82 -184h-143z" />
<glyph unicode="&#x2dc;" horiz-adv-x="573" d="M51 862q0 16 3 56t12 106q4 43 36.5 72.5t75.5 29.5q63 0 107 -45l123 -129l12 168h102q0 -35 -12 -159q-4 -45 -35 -76t-72 -31q-70 0 -114 49l-117 129l-18 -170h-103z" />
<glyph unicode="&#x2000;" horiz-adv-x="727" />
<glyph unicode="&#x2001;" horiz-adv-x="1454" />
<glyph unicode="&#x2002;" horiz-adv-x="727" />
<glyph unicode="&#x2003;" horiz-adv-x="1454" />
<glyph unicode="&#x2004;" horiz-adv-x="484" />
<glyph unicode="&#x2005;" horiz-adv-x="363" />
<glyph unicode="&#x2006;" horiz-adv-x="242" />
<glyph unicode="&#x2007;" horiz-adv-x="242" />
<glyph unicode="&#x2008;" horiz-adv-x="181" />
<glyph unicode="&#x2009;" horiz-adv-x="290" />
<glyph unicode="&#x200a;" horiz-adv-x="80" />
<glyph unicode="&#x2010;" horiz-adv-x="573" d="M41 287l143 143h348l-143 -143h-348z" />
<glyph unicode="&#x2011;" horiz-adv-x="573" d="M41 287l143 143h348l-143 -143h-348z" />
<glyph unicode="&#x2012;" horiz-adv-x="573" d="M41 287l143 143h348l-143 -143h-348z" />
<glyph unicode="&#x2013;" horiz-adv-x="942" d="M184 287v143h574v-143h-574z" />
<glyph unicode="&#x2014;" d="M174 287v143h717v-143h-717z" />
<glyph unicode="&#x2018;" horiz-adv-x="491" d="M164 860v184l123 144v-307h82v-164h-62q-59 0 -101 42t-42 101z" />
<glyph unicode="&#x2019;" horiz-adv-x="491" d="M125 1004v164h61q59 0 101.5 -42t42.5 -102v-184l-123 -143v307h-82z" />
<glyph unicode="&#x201a;" horiz-adv-x="491" d="M125 0v164h61q59 0 101.5 -42t42.5 -102v-184l-123 -143v307h-82z" />
<glyph unicode="&#x201c;" horiz-adv-x="819" d="M164 860v184l123 144v-307h82v-164h-62q-59 0 -101 42t-42 101zM492 860v184l122 144v-307h82v-164h-61q-59 0 -101 42t-42 101z" />
<glyph unicode="&#x201d;" horiz-adv-x="819" d="M125 1004v164h61q59 0 101.5 -42t42.5 -102v-184l-123 -143v307h-82zM451 1004v164h61q59 0 101.5 -42t42.5 -102v-184l-123 -143v307h-82z" />
<glyph unicode="&#x201e;" horiz-adv-x="819" d="M125 0v164h61q59 0 101.5 -42t42.5 -102v-184l-123 -143v307h-82zM451 0v164h61q59 0 101.5 -42t42.5 -102v-184l-123 -143v307h-82z" />
<glyph unicode="&#x2022;" horiz-adv-x="696" d="M184 410v41q0 59 42 101t102 42h41q59 0 101 -42t42 -101v-41q0 -59 -42 -101.5t-101 -42.5h-41q-59 0 -101.5 42t-42.5 102z" />
<glyph unicode="&#x202f;" horiz-adv-x="290" />
<glyph unicode="&#x2039;" horiz-adv-x="634" d="M102 358l349 344l81 -100l-245 -244l245 -241l-81 -103z" />
<glyph unicode="&#x203a;" horiz-adv-x="634" d="M102 117l246 241l-246 244l82 100l348 -344l-348 -344z" />
<glyph unicode="&#x205f;" horiz-adv-x="363" />
<glyph unicode="&#x20ac;" d="M143 287v143h133v143h-133v144h133v143q0 59 42 101.5t102 42.5h584l-89 -144h-475v-143h389l-88 -144h-301v-143h213l-67 -143h-146v-144h512v-143h-532q-59 0 -101.5 42t-42.5 101v144h-133z" />
<glyph unicode="&#x25fc;" horiz-adv-x="716" d="M0 0v717h717v-717h-717z" />
</font>
</defs>
</svg>
